<svg xmlns="http://www.w3.org/2000/svg" style="display: none;">
  <!-- Bus Icon -->
  <symbol id="icon-bus" viewBox="0 0 24 24">
    <path d="M4 16c0 .88.39 1.67 1 2.22V20c0 .55.45 1 1 1h1c.55 0 1-.45 1-1v-1h8v1c0 .55.45 1 1 1h1c.55 0 1-.45 1-1v-1.78c.61-.55 1-1.34 1-2.22V6c0-3.5-3.58-4-8-4s-8 .5-8 4v10zm3.5 1c-.83 0-1.5-.67-1.5-1.5S6.67 14 7.5 14s1.5.67 1.5 1.5S8.33 17 7.5 17zm9 0c-.83 0-1.5-.67-1.5-1.5s.67-1.5 1.5-1.5 1.5.67 1.5 1.5-.67 1.5-1.5 1.5zm1.5-6H6V6h12v5z"/>
  </symbol>

  <!-- Search Icon -->
  <symbol id="icon-search" viewBox="0 0 24 24">
    <path d="M15.5 14h-.79l-.28-.27C15.41 12.59 16 11.11 16 9.5 16 5.91 13.09 3 9.5 3S3 5.91 3 9.5 5.91 16 9.5 16c1.61 0 3.09-.59 4.23-1.57l.27.28v.79l5 4.99L20.49 19l-4.99-5zm-6 0C7.01 14 5 11.99 5 9.5S7.01 5 9.5 5 14 7.01 14 9.5 11.99 14 9.5 14z"/>
  </symbol>

  <!-- Star Icon -->
  <symbol id="icon-star" viewBox="0 0 24 24">
    <path d="M12 2l3.09 6.26L22 9.27l-5 4.87 1.18 6.88L12 17.77l-6.18 3.25L7 14.14 2 9.27l6.91-1.01L12 2z"/>
  </symbol>

  <!-- Shield Icon -->
  <symbol id="icon-shield" viewBox="0 0 24 24">
    <path d="M12 1L3 5v6c0 5.55 3.84 10.74 9 12 5.16-1.26 9-6.45 9-12V5l-9-4z"/>
  </symbol>

  <!-- Check Circle Icon -->
  <symbol id="icon-check-circle" viewBox="0 0 24 24">
    <path d="M12 2C6.48 2 2 6.48 2 12s4.48 10 10 10 10-4.48 10-10S17.52 2 12 2zm-2 15l-5-5 1.41-1.41L10 14.17l7.59-7.59L19 8l-9 9z"/>
  </symbol>

  <!-- Swap Icon -->
  <symbol id="icon-swap" viewBox="0 0 24 24">
    <path d="M6.99 11L3 15l3.99 4v-3H14v-2H6.99v-3zM21 9l-3.99-4v3H10v2h7.01v3L21 9z"/>
  </symbol>

  <!-- Clock Icon -->
  <symbol id="icon-clock" viewBox="0 0 24 24">
    <path d="M11.99 2C6.47 2 2 6.48 2 12s4.47 10 9.99 10C17.52 22 22 17.52 22 12S17.52 2 11.99 2zM12 20c-4.42 0-8-3.58-8-8s3.58-8 8-8 8 3.58 8 8-3.58 8-8 8z"/>
    <path d="M12.5 7H11v6l5.25 3.15.75-1.23-4.5-2.67z"/>
  </symbol>

  <!-- Calendar Icon -->
  <symbol id="icon-calendar" viewBox="0 0 24 24">
    <path d="M19 3h-1V1h-2v2H8V1H6v2H5c-1.11 0-1.99.9-1.99 2L3 19c0 1.1.89 2 2 2h14c1.1 0 2-.9 2-2V5c0-1.1-.9-2-2-2zm0 16H5V8h14v11zM7 10h5v5H7z"/>
  </symbol>

  <!-- User Icon -->
  <symbol id="icon-user" viewBox="0 0 24 24">
    <path d="M12 12c2.21 0 4-1.79 4-4s-1.79-4-4-4-4 1.79-4 4 1.79 4 4 4zm0 2c-2.67 0-8 1.34-8 4v2h16v-2c0-2.66-5.33-4-8-4z"/>
  </symbol>

  <!-- Phone Icon -->
  <symbol id="icon-phone" viewBox="0 0 24 24">
    <path d="M20.01 15.38c-1.23 0-2.42-.2-3.53-.56-.35-.12-.74-.03-1.01.24l-1.57 1.97c-2.83-1.35-5.48-3.9-6.89-6.83l1.95-1.66c.27-.28.35-.67.24-1.02-.37-1.11-.56-2.3-.56-3.53 0-.54-.45-.99-.99-.99H4.19C3.65 3 3 3.24 3 3.99 3 13.28 10.73 21 20.01 21c.71 0 .99-.63.99-1.18v-3.45c0-.54-.45-.99-.99-.99z"/>
  </symbol>

  <!-- Email Icon -->
  <symbol id="icon-email" viewBox="0 0 24 24">
    <path d="M20 4H4c-1.1 0-1.99.9-1.99 2L2 18c0 1.1.9 2 2 2h16c1.1 0 2-.9 2-2V6c0-1.1-.9-2-2-2zm0 4l-8 5-8-5V6l8 5 8-5v2z"/>
  </symbol>

  <!-- Credit Card Icon -->
  <symbol id="icon-credit-card" viewBox="0 0 24 24">
    <path d="M20 4H4c-1.11 0-2 .89-2 2v12c0 1.11.89 2 2 2h16c1.11 0 2-.89 2-2V6c0-1.11-.89-2-2-2zm0 14H4v-6h16v6zm0-10H4V6h16v2z"/>
  </symbol>

  <!-- Wallet Icon -->
  <symbol id="icon-wallet" viewBox="0 0 24 24">
    <path d="M10 16V8c0-1.11.89-2 2-2h9V4c0-1.11-.89-2-2-2H3c-1.11 0-2 .89-2 2v16c0 1.11.89 2 2 2h18c1.11 0 2-.89 2-2v-2h-9c-1.11 0-2-.89-2-2z"/>
  </symbol>

  <!-- Bank Icon -->
  <symbol id="icon-bank" viewBox="0 0 24 24">
    <path d="M5 4v3h5.5v12h3V7H19V4z"/>
  </symbol>

  <!-- Mobile Icon -->
  <symbol id="icon-mobile" viewBox="0 0 24 24">
    <path d="M16 1H8C6.34 1 5 2.34 5 4v16c0 1.66 1.34 3 3 3h8c1.66 0 3-1.34 3-3V4c0-1.66-1.34-3-3-3zm-2 20h-4v-1h4v1zm3.25-3H6.75V4h10.5v14z"/>
  </symbol>

  <!-- Location Icon -->
  <symbol id="icon-location" viewBox="0 0 24 24">
    <path d="M12 2C8.13 2 5 5.13 5 9c0 5.25 7 13 7 13s7-7.75 7-13c0-3.87-3.13-7-7-7zm0 9.5c-1.38 0-2.5-1.12-2.5-2.5s1.12-2.5 2.5-2.5 2.5 1.12 2.5 2.5-1.12 2.5-2.5 2.5z"/>
  </symbol>

  <!-- Seat Icon -->
  <symbol id="icon-seat" viewBox="0 0 24 24">
    <path d="M16 1H4c-1.1 0-2 .9-2 2v14h2V3h12V1zm3 4H8c-1.1 0-2 .9-2 2v14c0 1.1.9 2 2 2h11c1.1 0 2-.9 2-2V7c0-1.1-.9-2-2-2zm-1 16H9V7h9v14z"/>
  </symbol>

  <!-- Route Icon -->
  <symbol id="icon-route" viewBox="0 0 24 24">
    <path d="M12 2C6.48 2 2 6.48 2 12s4.48 10 10 10 10-4.48 10-10S17.52 2 12 2zm5 11h-4v4h-2v-4H7v-2h4V7h2v4h4v2z"/>
  </symbol>

  <!-- Ticket Icon -->
  <symbol id="icon-ticket" viewBox="0 0 24 24">
    <path d="M20 12c0-.7.6-1.3 1.3-1.3.4 0 .7-.3.7-.7s-.3-.7-.7-.7c-1.5 0-2.7-1.2-2.7-2.7 0-.4-.3-.7-.7-.7H4.7c-.4 0-.7.3-.7.7 0 1.5-1.2 2.7-2.7 2.7-.4 0-.7.3-.7.7s.3.7.7.7c.7 0 1.3.6 1.3 1.3s-.6 1.3-1.3 1.3c-.4 0-.7.3-.7.7s.3.7.7.7c1.5 0 2.7 1.2 2.7 2.7 0 .4.3.7.7.7h13.7c.4 0 .7-.3.7-.7 0-1.5 1.2-2.7 2.7-2.7.4 0 .7-.3.7-.7s-.3-.7-.7-.7c-.7 0-1.3-.6-1.3-1.3z"/>
  </symbol>

  <!-- Print Icon -->
  <symbol id="icon-print" viewBox="0 0 24 24">
    <path d="M19 8H5c-1.66 0-3 1.34-3 3v6h4v4h12v-4h4v-6c0-1.66-1.34-3-3-3zm-3 11H8v-5h8v5zm3-7c-.55 0-1-.45-1-1s.45-1 1-1 1 .45 1 1-.45 1-1 1zm-1-9H6v4h12V3z"/>
  </symbol>

  <!-- Cancel Icon -->
  <symbol id="icon-cancel" viewBox="0 0 24 24">
    <path d="M12 2C6.47 2 2 6.47 2 12s4.47 10 10 10 10-4.47 10-10S17.53 2 12 2zm5 13.59L15.59 17 12 13.41 8.41 17 7 15.59 10.59 12 7 8.41 8.41 7 12 10.59 15.59 7 17 8.41 13.41 12 17 15.59z"/>
  </symbol>

  <!-- Success Icon -->
  <symbol id="icon-success" viewBox="0 0 24 24">
    <path d="M12 2C6.48 2 2 6.48 2 12s4.48 10 10 10 10-4.48 10-10S17.52 2 12 2zm-2 15l-5-5 1.41-1.41L10 14.17l7.59-7.59L19 8l-9 9z"/>
  </symbol>

  <!-- Warning Icon -->
  <symbol id="icon-warning" viewBox="0 0 24 24">
    <path d="M1 21h22L12 2 1 21zm12-3h-2v-2h2v2zm0-4h-2v-4h2v4z"/>
  </symbol>

  <!-- Info Icon -->
  <symbol id="icon-info" viewBox="0 0 24 24">
    <path d="M12 2C6.48 2 2 6.48 2 12s4.48 10 10 10 10-4.48 10-10S17.52 2 12 2zm1 15h-2v-6h2v6zm0-8h-2V7h2v2z"/>
  </symbol>

  <!-- Menu Icon -->
  <symbol id="icon-menu" viewBox="0 0 24 24">
    <path d="M3 18h18v-2H3v2zm0-5h18v-2H3v2zm0-7v2h18V6H3z"/>
  </symbol>

  <!-- Close Icon -->
  <symbol id="icon-close" viewBox="0 0 24 24">
    <path d="M19 6.41L17.59 5 12 10.59 6.41 5 5 6.41 10.59 12 5 17.59 6.41 19 12 13.41 17.59 19 19 17.59 13.41 12z"/>
  </symbol>

  <!-- Arrow Left Icon -->
  <symbol id="icon-arrow-left" viewBox="0 0 24 24">
    <path d="M20 11H7.83l5.59-5.59L12 4l-8 8 8 8 1.41-1.41L7.83 13H20v-2z"/>
  </symbol>

  <!-- Arrow Right Icon -->
  <symbol id="icon-arrow-right" viewBox="0 0 24 24">
    <path d="M12 4l-1.41 1.41L16.17 11H4v2h12.17l-5.58 5.59L12 20l8-8z"/>
  </symbol>

  <!-- Wi-Fi Icon -->
  <symbol id="icon-wifi" viewBox="0 0 24 24">
    <path d="M1 9l2 2c4.97-4.97 13.03-4.97 18 0l2-2C16.93 2.93 7.07 2.93 1 9zm8 8l3 3 3-3c-1.65-1.66-4.34-1.66-6 0zm-4-4l2 2c2.76-2.76 7.24-2.76 10 0l2-2C15.14 9.14 8.87 9.14 5 13z"/>
  </symbol>

  <!-- Power Icon -->
  <symbol id="icon-power" viewBox="0 0 24 24">
    <path d="M18.36 6.64c1.95 1.96 2.99 4.57 2.99 7.36 0 5.52-4.48 10-10 10S1.35 19.52 1.35 14c0-2.79 1.04-5.4 2.99-7.36l1.42 1.42C4.22 9.58 3.35 11.74 3.35 14c0 4.41 3.59 8 8 8s8-3.59 8-8c0-2.26-.87-4.42-2.41-5.94l1.42-1.42z"/>
    <path d="M11 2h2v10h-2z"/>
  </symbol>

  <!-- Charging Icon -->
  <symbol id="icon-charging" viewBox="0 0 24 24">
    <path d="M14.47 13.5L11 20l1.53-6.5H9l3.47-6.5L11 13.5h3.47z"/>
  </symbol>

  <!-- Refresh Icon -->
  <symbol id="icon-refresh" viewBox="0 0 24 24">
    <path d="M17.65 6.35C16.2 4.9 14.21 4 12 4c-4.42 0-7.99 3.58-7.99 8s3.57 8 7.99 8c3.73 0 6.84-2.55 7.73-6h-2.08c-.82 2.33-3.04 4-5.65 4-3.31 0-6-2.69-6-6s2.69-6 6-6c1.66 0 3.14.69 4.22 1.78L13 11h7V4l-2.35 2.35z"/>
  </symbol>

  <!-- Download Icon -->
  <symbol id="icon-download" viewBox="0 0 24 24">
    <path d="M19 9h-4V3H9v6H5l7 7 7-7zM5 18v2h14v-2H5z"/>
  </symbol>

  <!-- Upload Icon -->
  <symbol id="icon-upload" viewBox="0 0 24 24">
    <path d="M9 16h6v-6h4l-7-7-7 7h4zm-4 2h14v2H5z"/>
  </symbol>

  <!-- Heart Icon -->
  <symbol id="icon-heart" viewBox="0 0 24 24">
    <path d="M12 21.35l-1.45-1.32C5.4 15.36 2 12.28 2 8.5 2 5.42 4.42 3 7.5 3c1.74 0 3.41.81 4.5 2.09C13.09 3.81 14.76 3 16.5 3 19.58 3 22 5.42 22 8.5c0 3.78-3.4 6.86-8.55 11.54L12 21.35z"/>
  </symbol>

  <!-- Settings Icon -->
  <symbol id="icon-settings" viewBox="0 0 24 24">
    <path d="M19.14,12.94c0.04-0.3,0.06-0.61,0.06-0.94c0-0.32-0.02-0.64-0.07-0.94l2.03-1.58c0.18-0.14,0.23-0.41,0.12-0.61 l-1.92-3.32c-0.12-0.22-0.37-0.29-0.59-0.22l-2.39,0.96c-0.5-0.38-1.03-0.7-1.62-0.94L14.4,2.81c-0.04-0.24-0.24-0.41-0.48-0.41 h-3.84c-0.24,0-0.43,0.17-0.47,0.41L9.25,5.35C8.66,5.59,8.12,5.92,7.63,6.29L5.24,5.33c-0.22-0.08-0.47,0-0.59,0.22L2.74,8.87 C2.62,9.08,2.66,9.34,2.86,9.48l2.03,1.58C4.84,11.36,4.82,11.69,4.82,12s0.02,0.64,0.07,0.94l-2.03,1.58 c-0.18,0.14-0.23,0.41-0.12,0.61l1.92,3.32c0.12,0.22,0.37,0.29,0.59,0.22l2.39-0.96c0.5,0.38,1.03,0.7,1.62,0.94l0.36,2.54 c0.05,0.24,0.24,0.41,0.48,0.41h3.84c0.24,0,0.44-0.17,0.47-0.41l0.36-2.54c0.59-0.24,1.13-0.56,1.62-0.94l2.39,0.96 c0.22,0.08,0.47,0,0.59-0.22l1.92-3.32c0.12-0.22,0.07-0.47-0.12-0.61L19.14,12.94z M12,15.6c-1.98,0-3.6-1.62-3.6-3.6 s1.62-3.6,3.6-3.6s3.6,1.62,3.6,3.6S13.98,15.6,12,15.6z"/>
  </symbol>
</svg>
